<?xml version="1.0" encoding="utf-8"?>
<!-- Generator: Adobe Illustrator 19.0.0, SVG Export Plug-In . SVG Version: 6.00 Build 0)  -->
<svg version="1.1" xmlns="http://www.w3.org/2000/svg" xmlns:xlink="http://www.w3.org/1999/xlink" x="0px" y="0px"
	 viewBox="146.2 124.2 599.9 129.5" style="enable-background:new 146.2 124.2 599.9 129.5;" xml:space="preserve">
<style type="text/css">
	.st0{display:none;}
	.st1{fill:#00874E;}
</style>
<g id="layer" class="st0">
</g>
<g id="Layer_2">
	<g>
		<path class="st1" d="M320.9,153h-24.7v72h25.1c22.7,0,37.2-14.2,37.2-36C358.6,167.6,343.2,153,320.9,153z M320.5,212.9h-9.3
			v-47.3h10.1c13.4,0,22.7,10.1,22.7,23.9C344,203.2,334.3,212.9,320.5,212.9z"/>
		<path class="st1" d="M146.2,156.6v64.7l56.2,32.4l56.2-32.4v-64.7l-56.2-32.4L146.2,156.6z M243.2,165.5v47.3l-40.9,23.5
			l-40.9-23.9v-46.9l40.9-23.5L243.2,165.5z"/>
		<path class="st1" d="M645.4,159.5c0,4-3.2,7.7-7.7,7.7c-4,0-7.7-3.2-7.7-7.7c0-4,3.2-7.7,7.7-7.7
			C641.8,151.8,645.4,155.4,645.4,159.5z M644.2,175.6h-12.9V225h12.9V175.6z"/>
		<path class="st1" d="M441.1,194.7c-5.7-2-7.3-3.2-7.3-5.7c0-2,1.6-3.6,4.9-3.6c4.9,0,8.5,2.8,11.7,5.7l7.3-8.1
			c-4.9-5.3-11.7-8.1-19-8.1c-10.5,0-17.8,6.1-17.8,14.6c0,9.7,7.7,13.8,15,16.2c0.8,0.4,1.6,0.4,2.4,0.8c4,1.2,6.5,2,6.5,4.5
			c0,1.6-0.8,3.6-6.1,3.6c-4.9,0-9.7-2.4-12.1-6.1l-7.7,8.1c5.3,6.1,11.7,8.9,19.8,8.9c11.7,0,19-5.7,19-15
			C458.1,201.5,451.6,198.7,441.1,194.7z"/>
		<path class="st1" d="M729.5,194.7c-5.7-2-7.3-3.2-7.3-5.7c0-2,1.6-3.6,4.9-3.6c4.9,0,8.5,2.8,11.7,5.7l7.3-8.1
			c-4.9-5.3-11.7-8.1-19-8.1c-10.5,0-17.8,6.1-17.8,14.6c0,9.7,7.7,13.8,15,16.2c0.8,0.4,1.6,0.4,2.4,0.8c4,1.2,6.5,2,6.5,4.5
			c0,1.6-0.8,3.6-6.1,3.6c-4.9,0-9.7-2.4-12.1-6.1l-7.7,8.1c5.3,6.1,11.7,8.9,19.8,8.9c11.7,0,19-5.7,19-15
			C746.5,201.5,740.1,198.7,729.5,194.7z"/>
		<path class="st1" d="M481.1,159.5c0,4-3.2,7.7-7.7,7.7c-4,0-7.7-3.2-7.7-7.7s3.2-7.7,7.7-7.7C477.5,151.8,481.1,155.4,481.1,159.5
			z M465.8,244c8.5,0,14.2-5.7,14.2-17.4v-51h-13v50.6c0,4.5-2,6.9-4.9,6.9c-1.6,0-2.8-0.4-4.5-1.2l-2,10.9
			C458.9,243.6,461.3,244,465.8,244L465.8,244z"/>
		<path class="st1" d="M521.6,178.5c-3.6-2.4-8.1-3.6-13.4-3.6c-8.1,0-14.6,2.8-18.6,8.1c0.8,0.8,6.5,6.9,7.7,8.1
			c2-2.8,4-4.5,6.9-5.3c1.2-0.4,2-0.4,3.2-0.4c1.6,0,3.2,0.4,4.5,0.8c3.2,1.2,4.9,3.6,4.9,6.9v3.2c-0.4,0-4.5-2-10.9-2
			c-10.5,0-18.2,6.9-18.2,15.8s6.9,15.4,16.2,15.4c5.7,0,9.3-2.4,12.5-5.3h0.4v4.5h12.1v-32.4C528.9,186.2,526.5,181.7,521.6,178.5z
			 M516.7,208.8c0,2.4-5.3,6.5-11.3,6.5c-3.6,0-6.5-2.4-6.5-5.7c0-2,1.2-6.1,7.7-6.1c4.9,0,10.1,1.6,10.1,1.6V208.8L516.7,208.8z"/>
		<path class="st1" d="M552.7,181.3L552.7,181.3l-0.4-5.7h-12.9V225h12.9v-22.3c0-8.9,4.5-15,15.4-15v-12.9
			C561.2,174.8,556,176.9,552.7,181.3z"/>
		<path class="st1" d="M608.2,220.6h0.4v4.5h12.1v-72h-12.9v26.7h-0.4c-2.4-3.2-8.5-4.9-12.5-4.9c-15.8,0-23.9,12.9-23.9,25.5
			c0,9.3,4,15.4,7.3,18.6c4.5,4.5,10.5,6.9,16.6,6.9C597.7,225.8,602.5,225,608.2,220.6z M595.6,214.1c-6.9,0-12.5-6.1-12.5-13.8
			s5.7-13.8,12.5-13.8c7.7,0,12.5,7.3,12.5,13.8C608.2,208,602.5,214.1,595.6,214.1z"/>
		<path class="st1" d="M668.1,179.7h-0.4v-4h-12.9V225h12.9v-25.5c0-11.3,6.9-12.9,11.3-12.9c7.3,0,10.1,6.1,10.1,11.7V225H702
			v-26.7c0-14.6-8.1-23.5-21-23.5C671.7,174.8,668.1,179.7,668.1,179.7z"/>
		<path class="st1" d="M414,199.9c0-14.6-10.1-25.1-24.3-25.1c-14.2,0-24.3,10.5-24.3,25.5s10.5,25.5,25.5,25.5
			c8.9,0,16.2-3.2,21-8.9c-0.8-1.2-6.5-6.9-7.7-8.1c-2.4,2.8-6.9,5.7-12.1,5.7c-6.5,0-11.3-3.6-12.9-10.1H414
			C414,203.6,414,201.5,414,199.9z M378.8,195.1c1.6-6.1,5.7-9.3,11.3-9.3s9.7,3.2,10.9,9.3H378.8z"/>
	</g>
</g>
</svg>
