<?xml version="1.0" encoding="utf-8"?>
<!-- Generator: Adobe Illustrator 19.0.0, SVG Export Plug-In . SVG Version: 6.00 Build 0)  -->
<svg version="1.1" id="Layer_1" xmlns="http://www.w3.org/2000/svg" xmlns:xlink="http://www.w3.org/1999/xlink" x="0px" y="0px"
	 viewBox="-181 182 24 24" style="enable-background:new -181 182 24 24;" xml:space="preserve">
<style type="text/css">
	.st0{fill:#FFFFFF;}
</style>
<path class="st0" d="M-169,182c-6.6,0-12,5.4-12,12s5.4,12,12,12s12-5.4,12-12S-162.4,182-169,182z M-164.3,200
	c-0.2,0-0.3-0.1-0.6-0.2c-1.6-1-3.7-1.5-5.9-1.5c-1.2,0-2.5,0.2-3.6,0.4c-0.2,0-0.4,0.1-0.6,0.1c-0.4,0-0.8-0.3-0.8-0.8
	s0.2-0.8,0.7-0.8c1.4-0.3,2.9-0.6,4.4-0.6c2.5,0,4.8,0.7,6.8,1.8c0.2,0.2,0.4,0.3,0.4,0.8C-163.6,199.8-163.9,200-164.3,200z
	 M-163.1,196.9c-0.2,0-0.4-0.1-0.7-0.2c-1.9-1.2-4.5-1.9-7.4-1.9c-1.4,0-2.8,0.2-3.7,0.4c-0.2,0.1-0.3,0.1-0.6,0.1
	c-0.5,0-0.9-0.4-0.9-0.9c0-0.6,0.2-0.8,0.8-1c1.3-0.3,2.6-0.7,4.5-0.7c3.1,0,5.9,0.8,8.4,2.2c0.3,0.2,0.6,0.6,0.6,0.9
	C-162.2,196.5-162.5,196.9-163.1,196.9z M-161.6,193.4c-0.2,0-0.3-0.1-0.7-0.2c-2.2-1.2-5.4-2-8.5-2c-1.5,0-3.2,0.2-4.6,0.6
	c-0.2,0-0.3,0.1-0.7,0.1c-0.7,0.1-1.1-0.4-1.1-1.1s0.3-1,0.8-1.1c1.8-0.4,3.6-0.7,5.6-0.7c3.4,0,6.9,0.8,9.7,2.2
	c0.3,0.2,0.7,0.6,0.7,1.1C-160.5,193-161,193.4-161.6,193.4z"/>
</svg>
