<?xml version="1.0" encoding="UTF-8"?>
<svg width="189px" height="40px" viewBox="0 0 189 40" version="1.1" xmlns="http://www.w3.org/2000/svg" xmlns:xlink="http://www.w3.org/1999/xlink">
    <title>Logo (White)</title>
    <g id="Menu" stroke="none" stroke-width="1" fill="none" fill-rule="evenodd">
        <g id="Menu-(Mobile)" transform="translate(-64.000000, -24.000000)" fill-rule="nonzero">
            <g id="Navigation" transform="translate(16.000000, 24.000000)">
                <g id="Logo-(White)" transform="translate(48.000000, 0.000000)">
                    <path d="M97.1890161,32.6654035 C97.7274435,32.4974613 98.219051,32.2575439 98.6872487,31.9696431 C100.185481,31.0819488 101.473025,29.9063536 102.54988,28.5148328 C102.924438,28.0349981 103.252176,27.5071799 103.509685,26.9553699 C103.696964,26.5475103 103.814013,26.1156591 103.837423,25.6838078 C103.884243,24.7961135 103.392635,24.1243448 102.54988,23.9564027 C101.145287,23.6685018 100.138662,24.5082126 99.9279726,24.3162787 C99.9513824,24.0283779 100.185481,23.8604357 100.34935,23.6685018 C102.198731,21.6531958 105.12512,19.0396261 107.208599,17.2642375 C107.302239,17.1922623 107.395878,17.1202871 107.466108,17.0483119 C107.793846,16.6644441 107.840666,16.2086011 107.583157,15.8247333 C107.325649,15.4168737 106.834041,15.2729233 106.365843,15.4888489 C106.084925,15.6088076 105.850826,15.8247333 105.593317,16.0406589 C102.456291,18.8706642 100.544433,20.6375456 99.8577429,21.3413033 C98.4765598,22.7808075 97.2358359,24.292287 96.1823911,25.9957004 C95.6205539,26.9073864 95.1055365,27.8670559 94.7543882,28.8987006 C94.5202894,29.5224858 94.4032399,30.146271 94.4266498,30.698081 C94.4500597,31.0339653 94.4734696,31.2738827 94.4734696,31.5138001 C94.4734696,31.9456513 94.7075684,32.2095605 95.0587167,32.4254861 C95.7376033,32.8093539 96.4398998,32.9293126 97.1890161,32.6654035 Z M96.6739987,29.5545291 C96.6739987,29.4345704 96.6974086,29.3146117 96.7676382,29.2186447 C96.9080975,28.9067521 97.0719667,28.5708678 97.2592458,28.282967 C98.1956411,26.9394296 99.4129551,25.9557684 100.864368,25.2839997 C101.075057,25.1880328 101.285746,25.0680741 101.519845,25.0920658 L101.660304,25.1880328 C101.660304,25.260008 101.660304,25.3319832 101.636894,25.3559749 C101.543255,25.5479089 101.473025,25.7398428 101.355975,25.9077849 C100.302531,27.3952727 98.9915772,28.5948595 97.3997051,29.4825538 C97.212426,29.5785208 97.0251469,29.650496 96.8378679,29.6984795 C96.7442283,29.7224712 96.6739987,29.6265043 96.6739987,29.5545291 Z M104.532114,39.6070672 C104.672574,39.439125 104.789623,39.2471911 104.906672,39.0312655 C105.515329,37.9276455 106.194216,36.8720091 106.896513,35.8403643 L111.320981,29.650496 C112.561705,27.9470826 113.849248,26.2916527 115.300661,24.804165 C115.46453,24.6362228 115.628399,24.4442889 115.722039,24.252355 C115.956138,23.8444955 115.885908,23.4366359 115.604989,23.1007516 C115.347481,22.8128507 114.879283,22.7168838 114.504725,22.9088177 C114.270626,23.0287764 114.059937,23.1967186 113.872658,23.3646607 L110.805963,25.9557684 C110.033437,26.6035453 109.284321,27.275314 108.488385,27.9230909 C107.903138,28.4269174 107.271071,28.8827604 106.592184,29.2906199 L105.983527,29.5785208 C105.936707,29.6025125 105.843068,29.5785208 105.819658,29.5545291 C105.772838,29.5305373 105.749428,29.4585621 105.772838,29.4105786 C105.796248,29.2906199 105.843068,29.194653 105.889888,29.0746943 C106.966742,27.1313635 108.301106,25.3559749 109.939798,23.8684872 C110.127077,23.6765533 110.337766,23.5326029 110.454815,23.2926855 C110.782553,22.6449086 110.361175,21.9251565 109.635469,21.9011647 C109.37796,21.9011647 109.120452,21.9731399 108.933172,22.1650738 C108.652254,22.4049912 108.347925,22.6449086 108.090417,22.9088177 C106.873103,24.1803798 105.772838,25.5479089 104.836443,27.0353966 C104.532114,27.5152313 104.274606,28.0430496 103.993687,28.5468761 C103.806408,28.9547356 103.665949,29.3625952 103.595719,29.8184382 C103.45526,30.8980664 104.063917,31.9537028 105.46851,31.8097524 C106.030347,31.7617689 106.521954,31.5218515 107.013562,31.2819342 C107.294481,31.1619755 107.528579,30.9220581 107.856318,30.9220581 C107.856318,31.2339507 107.622219,31.4258846 107.48176,31.665802 C106.732643,32.7454302 105.960117,33.8010666 105.211001,34.8806948 C104.532114,35.8643561 103.876638,36.8720091 103.3148,37.9276455 C103.197751,38.1675629 103.080702,38.4074803 102.987062,38.6473977 C102.846603,39.1032407 103.033882,39.5590837 103.40844,39.7990011 C103.759588,39.990935 104.227786,39.9429515 104.532114,39.6070672 Z M125.561795,32.9853476 C126.73229,32.8174054 127.855964,32.5055128 128.979639,32.0736615 C132.491121,30.7301242 135.698275,28.8107852 138.74156,26.5795536 C139.490676,26.0277436 140.192973,25.4039584 140.87186,24.7801732 C141.503926,24.1563881 142.112583,23.4846194 142.651011,22.7408755 C143.072389,22.1170904 143.423537,21.4453217 143.657636,20.7015778 C144.196063,18.8062305 143.563996,17.1747924 141.901894,16.1671394 C141.293237,15.8072633 140.614351,15.5913377 139.888644,15.4473873 C138.577691,15.1834781 137.266737,15.2794451 135.955784,15.5193625 C133.614796,15.9991972 131.367447,16.8149163 129.260557,17.9665197 C128.113473,18.5903049 127.060028,19.3580405 126.123633,20.2937183 C125.842714,20.5816191 125.585205,20.8935117 125.374516,21.2533878 C125.234057,21.5172969 125.140418,21.781206 125.163827,22.0930986 C125.210647,22.5969251 125.561795,22.9807929 126.053403,23.0047847 C126.498191,23.0287764 126.849339,22.8368425 127.013208,22.4289829 C127.200487,21.9251565 127.551636,21.5892721 127.926194,21.2533878 C128.792359,20.4856522 129.775575,19.861867 130.805609,19.3580405 C132.210202,18.6622801 133.661615,18.1344619 135.159848,17.7266023 C136.143063,17.4626932 137.126278,17.2707593 138.132903,17.3427345 C138.484051,17.3427345 138.8352,17.3187428 139.162938,17.3427345 C139.748185,17.3667263 140.310022,17.5346684 140.82504,17.8225693 C141.831665,18.3503875 142.135993,19.1421149 141.784845,20.2457348 C141.644386,20.6535944 141.433697,21.0374622 141.199598,21.42133 C140.84845,21.9491482 140.427072,22.4529747 139.982284,22.9088177 C139.092708,23.8205037 138.109493,24.6362228 137.079458,25.3799667 C134.949159,26.8914462 132.72522,28.2349835 130.384232,29.3625952 C129.213737,29.9144051 128.019833,30.3942399 126.7557,30.7301242 C126.029993,30.9220581 125.304287,31.0420168 124.55517,31.0420168 C123.806054,31.0420168 123.197397,30.7781077 122.729199,30.202306 C122.61215,30.0583555 122.471691,29.8904134 122.307822,29.7704547 C121.956673,29.5545291 121.582115,29.5785208 121.254377,29.8424299 C120.950048,30.106339 120.809589,30.4902068 120.950048,30.8740746 C121.043688,31.113992 121.184147,31.3539094 121.348016,31.5458433 C121.863034,32.2176119 122.54192,32.6494632 123.337856,32.8653889 C124.063563,33.0573228 124.812679,33.0813145 125.561795,32.9853476 Z M126.802519,29.6984795 C127.036618,29.6984795 127.270717,29.6025125 127.457996,29.3865869 C127.621865,29.1706613 127.762325,28.9547356 127.879374,28.73881 C128.441211,27.8271239 129.026458,26.9874131 129.705345,26.171694 C131.461086,24.0604211 133.263647,22.0211234 135.206668,20.1257761 C135.347127,19.9818257 135.487586,19.8378753 135.604636,19.6699331 C135.862144,19.2620736 135.791915,18.7822388 135.464176,18.4463545 C135.183258,18.1584536 134.73847,18.0864784 134.363912,18.3024041 C134.106403,18.4703462 133.895714,18.6622801 133.685025,18.854214 C131.601546,20.9654869 129.635115,23.1487351 127.785734,25.4759336 C127.153668,26.267661 126.61524,27.0833801 126.123633,27.9470826 C125.983173,28.187 125.842714,28.4509091 125.842714,28.7628017 C125.842714,29.3146117 126.240682,29.7224712 126.802519,29.6984795 Z M142.651011,32.025678 C142.908519,32.0016863 143.166028,31.9776946 143.400127,31.9057194 C143.844915,31.8097524 144.289703,31.6897937 144.73449,31.5458433 C147.098889,30.7301242 149.276008,29.5785208 151.312668,28.1150248 C151.523357,27.9470826 151.734046,27.7791405 151.968145,27.6111983 C152.483162,27.179347 152.436342,26.3636279 151.874505,26.0037519 C151.523357,25.7638345 151.055159,25.7878262 150.750831,26.0757271 C150.516732,26.2436692 150.306043,26.4356031 150.071944,26.6035453 C148.316203,27.8751074 146.420002,28.8347769 144.430162,29.5785208 C144.008784,29.7224712 143.610816,29.8424299 143.189438,29.9383969 C142.931929,30.0103721 142.674421,30.0103721 142.416912,30.0103721 C142.229633,29.9863803 142.112583,29.8664216 142.065764,29.6744877 C142.018944,29.3865869 142.018944,29.0746943 142.253043,28.8587687 C142.276453,28.8107852 142.346682,28.8107852 142.416912,28.8107852 C142.533961,28.8107852 142.627601,28.8347769 142.74465,28.8587687 C142.88511,28.8587687 143.048979,28.8827604 143.189438,28.8587687 C143.329897,28.8347769 143.470357,28.8107852 143.587406,28.7628017 C144.89836,28.282967 146.139083,27.6831735 147.239348,26.819471 C147.918235,26.3156445 148.503482,25.715851 148.971679,24.9960989 C149.229188,24.6122311 149.416467,24.2283633 149.533517,23.796512 C149.744206,22.884826 149.205778,21.9731399 148.339613,21.7572143 C148.082104,21.6852391 147.801185,21.6852391 147.520267,21.7332226 C147.028659,21.8291895 146.513642,21.9731399 146.045444,22.1890656 C143.798095,23.2686938 142.042354,24.9001319 140.80163,27.1073718 C140.473892,27.731157 140.239793,28.4029256 140.122743,29.098686 C139.888644,30.7781077 141.012319,32.0736615 142.651011,32.025678 Z M143.821505,26.4116114 C143.798095,26.3636279 143.798095,26.267661 143.844915,26.2436692 C144.71108,25.260008 145.717706,24.4682807 146.935019,23.9644542 C147.005249,23.9404624 147.098889,23.9884459 147.169118,23.9884459 C147.169118,24.2043715 147.052069,24.348322 146.935019,24.4682807 C146.139083,25.3559749 145.132458,25.9797601 144.055604,26.4356031 C143.961964,26.4835866 143.868325,26.5075784 143.821505,26.4116114 Z M149.697386,36.3681826 C150.212403,36.3681826 150.586961,36.3441908 150.96152,36.2482239 C152.95136,35.8403643 154.660281,34.8806948 156.181924,33.5131658 C156.439432,33.2972401 156.673531,33.033331 156.88422,32.7454302 C157.446057,32.0016863 157.609927,31.1619755 157.422647,30.2502894 C157.399238,30.1303308 157.352418,30.0343638 157.329008,29.9144051 C157.282188,29.650496 157.329008,29.5545291 157.586517,29.4585621 C157.750386,29.3865869 157.914255,29.3386034 158.101534,29.3146117 C159.225209,29.0027191 160.372293,28.7148182 161.519377,28.4269174 C161.730066,28.3789339 161.964165,28.3309504 162.151444,28.2109917 C162.479182,27.9950661 162.643052,27.7071652 162.596232,27.3232974 C162.572822,26.9394296 162.315313,26.6035453 161.917345,26.5075784 C161.753476,26.4595949 161.589607,26.4595949 161.425738,26.4835866 C161.121409,26.5075784 160.840491,26.5555618 160.559572,26.6275371 L156.416022,27.731157 L156.416022,27.731157 C155.971235,27.8751074 155.596677,27.8511157 155.222118,27.5152313 C154.636871,27.0114049 153.981395,26.5555618 153.372738,26.0757271 C153.138639,25.9077849 152.90454,25.715851 152.693851,25.5239171 C152.319293,25.164041 152.319293,24.9721071 152.717261,24.6842063 C153.466377,24.1084046 154.332543,23.7725203 155.245528,23.5805864 C155.432807,23.5326029 155.573267,23.6045781 155.643496,23.796512 C155.690316,23.9164707 155.737136,24.0124376 155.807365,24.1084046 C156.158514,24.5642476 156.650121,24.6362228 157.118319,24.3243302 C157.375828,24.1563881 157.586517,23.9164707 157.750386,23.6285698 C158.241993,22.8368425 157.937665,21.9491482 157.094909,21.6132639 C156.673531,21.4453217 156.252153,21.3973382 155.830775,21.4693134 C154.449592,21.6612473 153.138639,22.0691069 151.944735,22.8368425 C151.546767,23.0767599 151.195618,23.3646607 150.89129,23.7485285 C150.235813,24.5642476 150.212403,25.5479089 150.86788,26.4116114 C151.172208,26.7714875 151.499947,27.0833801 151.874505,27.3712809 C152.225653,27.6591818 152.600211,27.9470826 152.97477,28.2349835 C153.372738,28.5708678 153.372738,28.6668348 152.90454,28.8827604 C152.155424,29.2186447 151.382897,29.5545291 150.633781,29.9144051 C149.791025,30.2982729 148.995089,30.7781077 148.269383,31.3539094 C147.824595,31.6897937 147.426627,32.0736615 147.122299,32.5534963 C146.279543,33.9210253 146.724331,35.3845213 148.175743,36.05629 C148.690761,36.2962074 149.252598,36.3921743 149.697386,36.3681826 Z M149.837845,34.4008601 C149.533517,34.3768683 149.229188,34.3768683 148.971679,34.2569097 C148.690761,34.136951 148.597121,33.8490501 148.76099,33.6091327 C148.92486,33.3932071 149.088729,33.1772815 149.299418,33.033331 C149.627156,32.7694219 149.978304,32.5055128 150.352863,32.2895872 C151.734046,31.4738681 153.185458,30.8500829 154.683691,30.3222647 C154.89438,30.2502894 155.105069,30.1303308 155.315758,30.3462564 C155.596677,30.6101655 155.643496,30.9460498 155.479627,31.3059259 C155.362578,31.569835 155.175299,31.7857607 154.96461,32.0016863 C154.449592,32.5055128 153.840935,32.9373641 153.232278,33.2972401 C152.295883,33.8250584 151.312668,34.2569097 150.235813,34.3768683 C150.095354,34.3768683 149.954894,34.4008601 149.837845,34.4008601 Z M161.097999,31.8337441 C161.636427,31.8337441 162.104624,31.6418102 162.572822,31.4018929 C164.164694,30.562182 165.639517,29.5545291 166.97388,28.3309504 L168.776441,26.6275371 C169.127589,26.2916527 169.197819,25.7398428 168.9169,25.3319832 C168.589162,24.804165 167.886866,24.7321898 167.442078,25.164041 L165.592697,26.9394296 C164.632892,27.8031322 163.602857,28.5468761 162.502592,29.194653 C162.385543,29.2666282 162.245084,29.3146117 162.104624,29.3625952 L162.034395,29.3386034 L162.034395,29.3386034 C161.964165,29.3146117 161.940755,29.2666282 161.964165,29.194653 C162.034395,29.0507026 162.081214,28.9307439 162.151444,28.8107852 C163.275118,27.0353966 164.515842,25.4039584 165.943845,23.8924789 C166.107714,23.7245368 166.271584,23.5565946 166.388633,23.3646607 C166.763191,22.6689003 166.224764,21.8531812 165.428828,21.9971317 C165.194729,22.0211234 164.98404,22.1410821 164.820171,22.2850325 C164.586072,22.5009582 164.351973,22.7168838 164.141284,22.9568012 C162.87715,24.3963054 161.706656,25.9077849 160.653211,27.5392231 C160.395703,27.9710744 160.161604,28.4029256 159.927505,28.8587687 C159.740226,29.2186447 159.623177,29.6025125 159.576357,30.0103721 C159.435897,31.0420168 160.114784,31.8337441 161.097999,31.8337441 Z M164.024235,39.7030341 C164.281743,39.4631167 164.515842,39.1992076 164.726531,38.9352985 C165.194729,38.3594968 165.569287,37.7357116 166.014075,37.1599099 C166.840306,36.0873381 167.643208,34.9988272 168.440469,33.9075034 L169.63434,32.270049 C171.823452,29.2701979 174.03678,26.2987091 176.642162,23.6285698 C176.946491,23.3166772 176.99331,22.8368425 176.806031,22.4769664 C176.618752,22.1170904 176.220784,21.9491482 175.775996,22.0211234 C175.635537,22.0451151 175.495078,22.1170904 175.378028,22.1650738 C174.816191,22.4049912 174.207534,22.5249499 173.622287,22.1410821 C173.435008,22.0211234 173.13068,22.0451151 172.873171,22.0451151 C172.217694,22.0451151 171.632447,22.237049 171.0472,22.5009582 C169.314869,23.2686938 167.933685,24.5642476 166.716371,26.0517353 C166.248174,26.6275371 165.873616,27.3232974 165.592697,28.0430496 C165.428828,28.4509091 165.358598,28.8827604 165.358598,29.3146117 C165.358598,30.5141986 166.154534,31.2819342 167.301618,31.1379837 L167.381949,31.1228053 L167.381949,31.1228053 L167.544249,31.0806974 C167.653722,31.0552367 167.766472,31.0454442 167.886866,31.113992 C167.910275,31.3539094 167.746406,31.4978598 167.629357,31.665802 C166.060895,33.9210253 163.977415,35.8163726 162.760101,38.2875216 L162.666461,38.431472 C162.432363,38.9113068 162.385543,39.3671498 162.713281,39.7030341 C163.087839,40.0869019 163.602857,40.1108937 164.024235,39.7030341 Z M167.512307,28.8347769 C167.488898,28.8107852 167.442078,28.73881 167.465488,28.6908265 C167.559127,28.4988926 167.582537,28.282967 167.676177,28.1150248 C168.612572,26.4595949 170.017165,25.260008 171.702677,24.3963054 C171.749496,24.3723137 171.819726,24.3723137 171.960185,24.348322 C171.679267,25.0680741 171.374938,25.6198841 170.859921,26.0757271 C170.110805,26.723504 169.431918,27.4432561 168.729621,28.1150248 C168.401883,28.4269174 168.050735,28.6668348 167.676177,28.8587687 C167.629357,28.8827604 167.535717,28.8587687 167.512307,28.8347769 Z M174.067075,31.8097524 C174.277764,31.6418102 174.441633,31.4498763 174.605502,31.2339507 C175.307799,30.4662151 175.963276,29.650496 176.688982,28.8827604 C177.882886,27.5632148 179.14702,26.3396362 180.598433,25.3079915 C180.855941,25.1400493 181.09004,24.9001319 181.417778,24.8761402 L181.464598,24.8521485 L181.464598,24.9001319 C181.441188,25.2120245 181.230499,25.4279502 181.09004,25.6918593 C180.645252,26.4595949 180.200465,27.2033388 179.779087,27.9710744 C179.498168,28.4509091 179.287479,28.9547356 179.14702,29.5065456 C179.07679,29.8184382 179.02997,30.1543225 179.07679,30.4662151 C179.17043,31.113992 179.662037,31.8577359 180.645252,31.7857607 C180.972991,31.7377772 181.277319,31.6418102 181.534828,31.4738681 C183.267159,30.2982729 187.551168,26.4595949 187.972546,25.6198841 C188.276874,25.0200906 187.785267,24.3243302 187.10638,24.3243302 C186.333854,24.3243302 184.648342,26.9874131 181.932796,28.5228843 C181.909386,28.5468761 181.839156,28.5228843 181.792337,28.4988926 C181.768927,28.4988926 181.768927,28.4509091 181.768927,28.4269174 C181.815747,28.282967 181.862566,28.1390165 181.932796,28.0190578 L183.267159,25.8598014 C183.548078,25.3559749 183.828997,24.8281567 184.086505,24.3243302 C184.250374,23.9884459 184.344014,23.6525616 184.320604,23.2926855 C184.297194,22.6209168 183.852406,22.1410821 183.19693,22.0691069 C182.798962,22.0211234 182.400994,22.0930986 182.026435,22.237049 C181.792337,22.333016 181.581648,22.5249499 181.324139,22.4529747 C181.18368,22.237049 181.347549,22.0930986 181.347549,21.9251565 C181.394369,21.4933052 181.230499,21.1574208 180.855941,20.9654869 C180.504793,20.773553 180.130235,20.7975448 179.825906,21.0614539 C179.638627,21.2054043 179.474758,21.3733465 179.334299,21.5652804 C178.444723,22.5729334 177.625377,23.6045781 176.852851,24.708198 C175.635537,26.5075784 174.394813,28.2589752 173.06045,29.9623886 C172.896581,30.1543225 172.732712,30.3702481 172.639072,30.6101655 C172.428383,31.0660085 172.522023,31.5218515 172.873171,31.8097524 C173.224319,32.0976533 173.692517,32.0976533 174.067075,31.8097524 Z" id="byDesign" fill="#C5B050"></path>
                    <polygon id="Path" fill="#FFFFFF" points="105.940973 14.3272576 105.940973 8.34253763 111.890485 14.9531063 117.839997 8.34253763 117.853218 19.8449271 121.819559 19.8449271 121.819559 0.0132211373 120.497445 0.0132211373 111.890485 9.79686273 103.296746 0.0132211373 101.974632 0.0132211373 101.974632 17.7956354"></polygon>
                    <path d="M128.395017,17.2371246 C128.838139,16.9776656 129.268512,16.7520291 129.686136,16.560215 L129.686136,11.6346008 L137.632039,11.6346008 L137.632039,7.94590351 L129.686136,7.94590351 L129.686136,3.71513958 L140.289488,3.71513958 L140.289488,0.0132211373 L125.719795,0.0264422746 L125.719795,19.0965838 C126.238748,18.5973575 127.130489,17.9775377 128.395017,17.2371246 Z" id="Path" fill="#FFFFFF"></path>
                    <path d="M3.96634119,19.8449271 L3.96634119,11.647822 L7.58893281,11.647822 L12.3353211,19.8449271 L16.8833923,19.8449271 L11.938687,11.1983033 C14.3713762,10.4138491 15.5877209,8.58933219 15.5877209,5.72475245 C15.5877209,1.91706491 13.2740218,0.0132211373 8.64662379,0.0132211373 L8.64662379,0.0132211373 L0,0.0132211373 L0,19.8449271 L3.96634119,19.8449271 Z M9.51921885,7.94590351 L3.96634119,7.94590351 L3.96634119,3.72836072 L9.55888226,3.72836072 C11.1277906,3.78124527 11.9342799,4.45993031 11.9783504,5.76441586 C11.9342799,7.19229869 11.1145694,7.91946124 9.51921885,7.94590351 L9.51921885,7.94590351 Z M33.4362562,19.8449271 L33.4362562,16.1430086 L22.8593464,16.1430086 L22.8593464,11.6346008 L30.8052499,11.6346008 L30.8052499,7.94590351 L22.8593464,7.94590351 L22.8593464,3.71513958 L33.4626985,3.71513958 L33.4626985,0.0132211373 L18.8930052,0.0264422746 L18.8930052,19.8449271 L33.4362562,19.8449271 Z M47.0275854,19.8449271 L47.0275854,3.71513958 L53.638154,3.71513958 L53.638154,0.0132211373 L36.4506755,0.0132211373 L36.4506755,3.71513958 L43.0612442,3.71513958 L43.0612442,19.8449271 L47.0275854,19.8449271 Z M60.5395877,19.8449271 L60.5395877,0 L56.5864676,0 L56.5864676,19.8449271 L60.5395877,19.8449271 Z M68.4854912,19.8449271 L68.4854912,11.647822 L72.1080828,11.647822 L76.8544711,19.8449271 L81.4025423,19.8449271 L76.457837,11.1983033 C78.8905262,10.4138491 80.1068709,8.58933219 80.1068709,5.72475245 C80.1068709,1.91706491 77.7931718,0.0132211373 73.1657738,0.0132211373 L73.1657738,0.0132211373 L64.51915,0.0132211373 L64.51915,19.8449271 L68.4854912,19.8449271 Z M74.0383688,7.94590351 L68.4854912,7.94590351 L68.4854912,3.72836072 L74.0780323,3.72836072 C75.6469405,3.78124527 76.4534299,4.45993031 76.4975004,5.76441586 C76.4534299,7.19229869 75.6337194,7.91946124 74.0383688,7.94590351 L74.0383688,7.94590351 Z M97.9554062,19.8449271 L97.9554062,16.1430086 L87.3784964,16.1430086 L87.3784964,11.6346008 L95.3243999,11.6346008 L95.3243999,7.94590351 L87.3784964,7.94590351 L87.3784964,3.71513958 L97.9818485,3.71513958 L97.9818485,0.0132211373 L83.4121552,0.0264422746 L83.4121552,19.8449271 L97.9554062,19.8449271 Z M148.248612,19.8449271 L148.248612,7.54926939 L160.54427,19.8449271 L161.998595,19.8449271 L161.998595,0.0132211373 L158.032254,0.0132211373 L158.032254,12.4410902 L145.604385,0.0132211373 L144.282271,0.0132211373 L144.282271,19.8449271 L148.248612,19.8449271 Z M175.682472,19.8449271 L175.682472,3.71513958 L182.293041,3.71513958 L182.293041,0.0132211373 L165.105563,0.0132211373 L165.105563,3.71513958 L171.716131,3.71513958 L171.716131,19.8449271 L175.682472,19.8449271 Z" id="RETIREMENT" fill="#FFFFFF"></path>
                </g>
            </g>
        </g>
    </g>
</svg>